<?xml version="1.0" encoding="utf-8"?>
<svg width="1024" height="1024" viewBox="0 0 1024 1024" fill="none" xmlns="http://www.w3.org/2000/svg" xmlns:bx="https://boxy-svg.com">
  <rect width="1024" height="1024" fill="url(#paint0_linear)" style="visibility: hidden;">
    <title>Gradient BG</title>
  </rect>
  <g style="pointer-events: none;"/>
  <defs>
    <linearGradient id="paint0_linear" x1="512" y1="97.5" x2="512" y2="968.5" gradientUnits="userSpaceOnUse" gradientTransform="matrix(1, 0, 0, 1, 0, 0)">
      <stop stop-color="#97F595"/>
      <stop offset="1" stop-color="#3280F4"/>
    </linearGradient>
    <filter id="filter0_d" x="78" y="89" width="868" height="868" filterUnits="userSpaceOnUse" color-interpolation-filters="sRGB">
      <feFlood flood-opacity="0" result="BackgroundImageFix"/>
      <feColorMatrix in="SourceAlpha" type="matrix" values="0 0 0 0 0 0 0 0 0 0 0 0 0 0 0 0 0 0 127 0"/>
      <feOffset dy="11"/>
      <feGaussianBlur stdDeviation="11"/>
      <feColorMatrix type="matrix" values="0 0 0 0 0 0 0 0 0 0 0 0 0 0 0 0 0 0 0.28 0"/>
      <feBlend mode="normal" in2="BackgroundImageFix" result="effect1_dropShadow"/>
      <feBlend mode="normal" in="SourceGraphic" in2="effect1_dropShadow" result="shape"/>
    </filter>
    <linearGradient id="gradient-1" x1="512" y1="100" x2="512" y2="924" gradientUnits="userSpaceOnUse">
      <stop stop-opacity="0"/>
      <stop offset="1" stop-opacity="0.2"/>
    </linearGradient>
    <filter id="inner-shadow-filter-0" x="-500%" y="-500%" width="1000%" height="1000%" bx:preset="inner-shadow 1 0 0 4 0.52 rgba(0,0,0,0.7)">
      <feOffset dx="0" dy="0"/>
      <feGaussianBlur stdDeviation="4"/>
      <feComposite operator="out" in="SourceGraphic"/>
      <feComponentTransfer result="choke">
        <feFuncA type="linear" slope="1.04"/>
      </feComponentTransfer>
      <feFlood flood-color="rgba(0,0,0,0.7)" result="color"/>
      <feComposite operator="in" in="color" in2="choke" result="shadow"/>
      <feComposite operator="over" in="shadow" in2="SourceGraphic"/>
    </filter>
    <linearGradient gradientUnits="userSpaceOnUse" x1="36.465" y1="0" x2="36.465" y2="122.87" id="gradient-0">
      <stop offset="0" style="stop-color: rgba(213, 10, 10, 1)"/>
      <stop offset="1" style="stop-color: rgba(115, 5, 5, 1)"/>
    </linearGradient>
    <filter id="inner-shadow-filter-1" x="-500%" y="-500%" width="1000%" height="1000%" bx:preset="inner-shadow 1 0 0 2 0.09 rgba(0,0,0,0.7)">
      <feOffset dx="0" dy="0"/>
      <feGaussianBlur stdDeviation="2"/>
      <feComposite operator="out" in="SourceGraphic"/>
      <feComponentTransfer result="choke">
        <feFuncA type="linear" slope="0.18"/>
      </feComponentTransfer>
      <feFlood flood-color="rgba(0,0,0,0.7)" result="color"/>
      <feComposite operator="in" in="color" in2="choke" result="shadow"/>
      <feComposite operator="over" in="shadow" in2="SourceGraphic"/>
    </filter>
  </defs>
  <g filter="url(#filter0_d)" style="pointer-events: none;">
    <rect x="100" y="100" width="824" height="824" rx="184" fill="white"/>
    <rect x="100" y="100" width="824" height="824" rx="184" fill="url(#gradient-1)"/>
  </g>
  <g transform="matrix(4.194529, 0, 0, 4.194529, 359.046509, 254.309067)" style="filter: url(#inner-shadow-filter-0);">
    <path class="st0" d="M10.94,0h51.04C68,0,72.93,4.93,72.93,10.94v100.99c0,6.02-4.93,10.94-10.94,10.94l-51.04,0 C4.93,122.88,0,117.95,0,111.94V10.95C0,4.93,4.93,0,10.94,0L10.94,0z M36.46,100.1c3.91,0,7.09,3.17,7.09,7.09 c0,3.91-3.18,7.09-7.09,7.09c-3.92,0-7.09-3.17-7.09-7.09C29.37,103.28,32.55,100.1,36.46,100.1L36.46,100.1z M25.17,8.86h22.59 c0.16,0,0.3,0.14,0.3,0.3v3.3c0,0.16-0.14,0.3-0.3,0.3H25.17c0,0,0,0,0,0c-0.16,0-0.3-0.13-0.3-0.3v0l0-3.3c0,0,0,0,0,0 C24.87,8.99,25,8.86,25.17,8.86L25.17,8.86L25.17,8.86L25.17,8.86z M9.65,21.53h53.63c0.98,0,1.78,0.81,1.78,1.78v70.01 c0,0.97-0.81,1.78-1.78,1.78H9.65c-0.97,0-1.78-0.8-1.78-1.78V23.3C7.87,22.33,8.67,21.53,9.65,21.53L9.65,21.53z" style="clip-rule: evenodd; fill-rule: evenodd; fill: url(#gradient-0); filter: url(#inner-shadow-filter-1);"/>
    <path d="M 28.185 70.644 L 33.795 45.544 L 37.115 45.544 L 38.225 48.494 L 32.245 73.984 L 28.635 73.984 L 28.185 70.644 Z M 25.915 45.544 L 30.545 70.764 L 29.825 73.984 L 25.785 73.984 L 19.615 45.544 L 25.915 45.544 Z M 42.445 70.644 L 47.035 45.544 L 53.325 45.544 L 47.165 73.984 L 43.105 73.984 L 42.445 70.644 Z M 39.165 45.544 L 44.825 70.764 L 44.315 73.984 L 40.705 73.984 L 34.685 48.474 L 35.865 45.544 L 39.165 45.544 Z" style="white-space: pre; fill: rgb(213, 10, 10);"/>
  </g>
  <path fill-rule="evenodd" clip-rule="evenodd" d="M 52 50 L 50.999 50 L 50.999 51.001 L 50.999 972.999 L 50.999 974 L 52 974 L 974 974 L 975.001 974 L 975.001 972.999 L 975.001 51.001 L 975.001 50 L 974 50 L 52 50 Z M 53.001 972.001 L 53.001 51.999 L 973 51.999 L 973 972.001 L 53.001 972.001 Z M 666 100.401 L 553.998 100 L 513 100 L 513 153 L 666 153 L 666 100.401 Z M 474.879 154.999 L 360.001 154.999 L 360.001 187.143 C 395.493 170.397 434.171 159.297 474.879 154.999 Z M 360.001 189.354 C 405.808 167.596 456.983 155.301 511.001 155.004 L 511.001 293.009 C 452.256 293.533 399.032 317.19 360.001 355.309 L 360.001 189.354 Z M 361.133 357 C 399.829 319.08 452.665 295.535 511.001 295.008 L 511.001 357 L 361.133 357 Z M 190.355 358.999 L 356.31 358.999 C 317.972 398.255 294.268 451.86 294.003 511 L 156 511 C 156.149 456.614 168.461 405.089 190.355 358.999 Z M 357.999 360.131 C 319.865 399.049 296.267 452.268 296.002 511 L 357.999 511 L 357.999 360.131 Z M 156 513 L 294.003 513 C 294.268 572.14 317.972 625.745 356.31 665.001 L 190.355 665.001 C 168.461 618.911 156.149 567.386 156 513 Z M 296.002 513 C 296.267 571.732 319.865 624.951 357.999 663.869 L 357.999 513 L 296.002 513 Z M 360.001 834.646 L 360.001 668.691 C 399.032 706.81 452.256 730.467 511.001 730.991 L 511.001 868.996 C 456.983 868.699 405.808 856.404 360.001 834.646 Z M 361.133 667 C 399.829 704.92 452.665 728.465 511.001 728.992 L 511.001 667 L 361.133 667 Z M 513 869.001 L 513 731.001 C 572.537 731.001 626.525 707.244 666 668.691 L 666 834.646 C 619.627 856.674 567.752 869.001 513 869.001 Z M 513 728.999 C 572.126 728.999 625.731 705.353 664.868 667 L 513 667 L 513 728.999 Z M 360.001 662.586 L 402.198 620.388 C 380.362 598.07 365.216 569.183 360.001 536.966 L 360.001 662.586 Z M 355.586 667 L 191.313 667 C 208.599 702.81 231.686 735.292 259.358 763.226 L 355.586 667 Z M 357.999 667.413 L 260.77 764.645 C 288.931 792.758 321.761 816.193 357.999 833.688 L 357.999 667.413 Z M 360.414 665.001 L 488.036 665.001 C 455.332 659.704 426.059 644.178 403.605 621.807 L 360.414 665.001 Z M 405.019 620.393 C 432.253 647.523 469.648 664.456 511.001 664.988 L 511.001 514.414 L 405.019 620.393 Z M 403.613 618.974 L 509.587 513 L 360.003 513 C 360.268 554.239 376.848 591.607 403.613 618.974 Z M 513 509.586 L 513 358.999 C 554.636 358.999 592.386 375.632 619.975 402.611 L 513 509.586 Z M 514.414 511 L 621.395 404.02 C 648.742 431.473 665.73 469.252 665.997 511 L 514.414 511 Z M 622.809 402.606 C 645.177 425.06 660.706 454.333 666 487.034 L 666 359.415 L 622.809 402.606 Z M 663.587 358.999 L 537.965 358.999 C 570.182 364.217 599.069 379.363 621.387 401.197 L 663.587 358.999 Z M 668.415 357 L 834.687 357 C 817.194 320.762 793.757 287.929 765.644 259.771 L 668.415 357 Z M 764.227 258.359 L 668.001 354.585 L 668.001 190.312 C 703.808 207.598 736.293 230.687 764.227 258.359 Z M 767.058 258.357 C 795.555 286.898 819.272 320.215 836.908 357 L 868.999 357 L 868.999 156.413 L 767.058 258.357 Z M 867.585 154.999 L 765.642 256.945 C 737.322 228.892 704.355 205.523 668.001 188.094 L 668.001 154.999 L 867.585 154.999 Z M 259.355 766.057 C 287.897 794.556 321.214 818.273 357.999 835.906 L 357.999 869.001 L 156.414 869.001 L 259.355 766.057 Z M 257.944 764.64 L 155 867.587 L 155 667 L 189.092 667 C 206.522 703.357 229.891 736.323 257.944 764.64 Z M 513 665.001 C 554.636 665.001 592.386 648.37 619.975 621.389 L 513 514.414 L 513 665.001 Z M 514.414 513 L 621.395 619.98 C 648.742 592.527 665.73 554.748 665.997 513 L 514.414 513 Z M 537.965 665.001 C 570.182 659.785 599.069 644.637 621.387 622.803 L 663.587 665.001 L 537.965 665.001 Z M 622.809 621.394 L 666 664.585 L 666 536.966 C 660.706 569.667 645.177 598.94 622.809 621.394 Z M 668.001 833.688 L 668.001 669.415 L 764.227 765.641 C 736.293 793.313 703.808 816.402 668.001 833.688 Z M 668.415 667 L 765.644 764.229 C 793.757 736.071 817.194 703.238 834.687 667 L 668.415 667 Z M 668.001 835.906 C 704.355 818.479 737.322 795.108 765.642 767.055 L 867.585 869.001 L 668.001 869.001 L 668.001 835.906 Z M 767.058 765.643 L 868.999 867.587 L 868.999 667 L 836.908 667 C 819.272 703.785 795.555 737.102 767.058 765.643 Z M 511.001 359.012 L 511.001 509.586 L 405.019 403.607 C 432.253 376.477 469.648 359.544 511.001 359.012 Z M 403.613 405.026 L 509.587 511 L 360.003 511 C 360.268 469.761 376.848 432.393 403.613 405.026 Z M 488.036 358.999 C 455.332 364.296 426.059 379.822 403.605 402.193 L 360.414 358.999 L 488.036 358.999 Z M 402.198 403.612 L 360.001 361.414 L 360.001 487.034 C 365.216 454.819 380.362 425.93 402.198 403.612 Z M 191.313 357 L 355.586 357 L 259.358 260.774 C 231.686 288.708 208.599 321.19 191.313 357 Z M 260.77 259.355 L 357.999 356.587 L 357.999 190.312 C 321.761 207.807 288.931 231.242 260.77 259.355 Z M 357.999 188.094 C 321.214 205.727 287.897 229.444 259.355 257.943 L 156.414 154.999 L 357.999 154.999 L 357.999 188.094 Z M 155 156.413 L 257.944 259.36 C 229.891 287.677 206.522 320.643 189.092 357 L 155 357 L 155 156.413 Z M 513 357 L 664.868 357 C 625.731 318.647 572.126 295.001 513 295.001 L 513 357 Z M 835.645 665.001 L 669.69 665.001 C 708.026 625.745 731.733 572.14 731.997 513 L 868.999 513 L 868.999 538.925 C 865.656 583.764 854.03 626.3 835.645 665.001 Z M 668.001 663.869 C 706.135 624.951 729.734 571.732 729.998 513 L 668.001 513 L 668.001 663.869 Z M 868.999 511 L 731.997 511 C 731.733 451.86 708.026 398.255 669.69 358.999 L 835.645 358.999 C 854.03 397.7 865.656 440.236 868.999 485.075 L 868.999 511 Z M 729.998 511 C 729.734 452.268 706.135 399.049 668.001 360.131 L 668.001 511 L 729.998 511 Z M 513 292.999 C 572.537 292.999 626.525 316.756 666 355.309 L 666 189.354 C 619.627 167.326 567.752 154.999 513 154.999 L 513 292.999 Z M 188.142 358.999 L 155 358.999 L 155 485.002 C 158.33 440.211 169.878 397.71 188.142 358.999 Z M 155 539 L 155 665.001 L 188.142 665.001 C 169.878 626.29 158.33 583.789 155 539 Z M 360.001 836.859 L 360.001 869.001 L 474.879 869.001 C 434.171 864.703 395.493 853.603 360.001 836.859 Z M 551.121 869.001 C 591.829 864.703 630.508 853.603 666 836.859 L 666 869.001 L 551.121 869.001 Z M 837.858 665.001 L 868.999 665.001 L 868.999 558.623 C 864.126 596.22 853.432 631.987 837.858 665.001 Z M 871.999 511 C 871.976 502.258 871.639 493.586 871.001 485.002 L 871.001 358.999 L 924.001 358.999 L 923.993 468.999 L 923.993 511 L 871.999 511 Z M 871.001 539 C 871.639 530.414 871.976 521.742 871.999 513 L 923.993 513 L 923.993 554.998 L 923.998 611.958 L 924.001 665.001 L 871.001 665.001 L 871.001 539 Z M 868.999 465.377 C 864.126 427.78 853.432 392.013 837.858 358.999 L 868.999 358.999 L 868.999 465.377 Z M 666 187.143 C 630.508 170.397 591.829 159.297 551.121 154.999 L 666 154.999 L 666 187.143 Z M 513 871 L 513 924 L 555.218 924 L 667.643 923.995 L 669.743 923.995 C 678.831 923.995 687.919 923.997 697.007 923.942 C 705.253 923.892 713.496 923.796 721.737 923.574 C 739.699 923.087 757.817 922.026 775.579 918.832 C 793.596 915.59 810.368 910.301 826.738 901.96 C 842.524 893.918 856.992 883.459 869.589 871 L 668.001 871 L 668.001 923.788 L 666 923.788 L 666 871 L 513 871 Z M 668.001 100.406 L 668.001 153 L 869.254 153 C 856.737 140.708 842.388 130.377 826.746 122.419 C 810.365 114.082 793.586 108.798 775.559 105.561 C 757.804 102.372 739.691 101.316 721.737 100.829 C 713.496 100.608 705.253 100.512 697.007 100.461 C 687.919 100.406 678.831 100.406 669.741 100.406 L 668.001 100.406 Z M 100.999 665.001 L 153 665.001 L 153 513 L 100.999 513 L 100.999 511 L 153 511 L 153 358.999 L 100.999 358.999 L 100.999 357 L 153 357 L 153 155.359 C 140.779 167.813 130.501 182.074 122.573 197.61 C 114.216 213.981 108.92 230.753 105.673 248.77 C 102.476 266.517 101.417 284.617 100.931 302.561 C 100.709 310.799 100.613 319.04 100.563 327.278 C 100.535 331.819 100.412 336.866 100.288 341.95 C 100.144 347.829 100.001 353.753 100.001 358.999 L 100.003 469.09 L 100.001 554.998 L 100.507 667.426 L 100.507 669.18 C 100.507 678.392 100.507 687.603 100.563 696.815 C 100.613 705.068 100.709 713.317 100.931 721.565 C 101.417 739.542 102.479 757.675 105.678 775.452 C 108.922 793.484 114.221 810.269 122.568 826.652 L 120.788 827.562 C 112.338 810.982 106.986 794.006 103.709 775.805 C 100.485 757.879 99.421 739.63 98.932 721.621 C 98.71 713.352 98.614 705.086 98.564 696.827 C 98.506 687.608 98.508 678.392 98.508 669.183 L 98.508 667.431 L 98.508 667.426 L 97.999 555.008 L 97.999 554.998 L 98.004 469.09 L 97.999 358.999 C 97.999 354.078 98.125 348.573 98.261 343.092 L 98.289 341.907 C 98.413 336.818 98.536 331.786 98.564 327.266 C 98.614 319.02 98.71 310.766 98.932 302.508 L 98.932 302.508 C 99.421 284.531 100.482 266.31 103.704 248.417 L 105.673 248.77 L 103.704 248.417 C 106.981 230.228 112.336 213.267 120.791 196.7 C 129.095 180.432 139.94 165.549 152.877 152.642 C 165.819 139.732 180.743 128.915 197.054 120.631 C 213.651 112.201 230.645 106.862 248.863 103.595 C 266.81 100.378 285.079 99.317 303.109 98.83 C 311.387 98.606 319.661 98.513 327.927 98.462 C 337.04 98.407 346.153 98.407 355.256 98.407 L 355.259 98.407 L 357.356 98.407 L 357.361 98.407 L 468.99 98.001 L 468.998 98.001 L 553.998 98.001 L 554.003 98.001 L 667.643 98.407 L 667.646 98.407 L 669.743 98.407 L 669.743 98.407 C 678.831 98.407 687.924 98.407 697.02 98.462 C 705.271 98.513 713.529 98.606 721.793 98.83 C 739.777 99.317 758.008 100.378 775.912 103.59 C 794.108 106.86 811.076 112.201 827.654 120.634 C 843.929 128.918 858.822 139.735 871.734 152.642 C 884.649 165.549 895.476 180.438 903.763 196.71 C 912.195 213.267 917.539 230.218 920.809 248.394 C 924.028 266.297 925.09 284.521 925.576 302.508 C 925.8 310.764 925.896 319.02 925.944 327.266 C 926 336.477 926 345.689 926 354.893 L 926 356.627 L 924.001 356.627 L 924.001 354.89 C 924.001 345.686 924.001 336.482 923.945 327.278 C 923.895 319.038 923.799 310.799 923.577 302.561 C 923.093 284.609 922.034 266.502 918.84 248.749 C 915.603 230.74 910.314 213.981 901.98 197.618 C 893.936 181.819 883.469 167.341 871.001 154.742 L 871.001 357 L 924.001 357 L 924.001 356.627 C 925.261 356.627 925.727 356.627 925.899 356.627 C 926 356.627 926 356.627 926 356.627 L 926 356.632 L 926 356.647 L 926 356.708 L 926 356.945 L 926 357.872 L 926 361.397 L 926 373.978 L 925.997 412.264 L 925.995 468.999 L 925.995 554.998 L 925.997 611.958 L 926 650.14 L 926 662.677 L 926 666.186 L 926 667.111 L 926 667.348 L 926 667.408 L 926 667.421 L 926 667.426 C 926 667.426 926 667.426 925.992 667.426 C 925.972 667.426 925.881 667.426 925.498 667.426 L 924.001 667.426 L 924.001 667 L 871.001 667 L 871.001 869.588 C 883.467 856.971 893.931 842.476 901.978 826.66 C 910.317 810.269 915.603 793.474 918.845 775.432 C 922.034 757.662 923.093 739.534 923.577 721.565 C 923.799 713.317 923.895 705.066 923.945 696.815 C 924.001 687.709 924.001 678.604 924.001 669.498 L 924.001 667.426 L 926 667.426 L 926 669.518 C 926 678.616 926.002 687.722 925.944 696.827 C 925.896 705.083 925.8 713.35 925.576 721.621 C 925.09 739.623 924.028 757.866 920.812 775.785 C 917.542 793.996 912.198 810.98 903.76 827.567 C 895.474 843.857 884.649 858.764 871.734 871.686 C 858.822 884.613 843.926 895.448 827.646 903.742 C 811.081 912.182 794.118 917.529 775.932 920.801 C 758.021 924.023 739.784 925.084 721.793 925.573 C 713.529 925.797 705.271 925.891 697.02 925.941 C 687.924 925.996 678.829 925.996 669.741 925.996 L 667.643 925.996 L 555.218 925.999 L 470.006 925.999 L 357.361 925.996 L 355.644 925.996 C 346.41 925.996 337.171 925.996 327.93 925.941 C 319.661 925.891 311.387 925.797 303.109 925.573 C 285.087 925.086 266.822 924.025 248.886 920.806 C 230.655 917.534 213.651 912.184 197.043 903.739 C 180.736 895.443 165.817 884.613 152.877 871.688 C 139.937 858.761 129.092 843.855 120.788 827.562 L 122.568 826.652 C 130.499 842.216 140.777 856.497 153 868.968 L 153 667 L 100.999 667 L 100.999 665.001 Z M 468.998 100 L 511.001 100 L 511.001 153 L 360.001 153 L 360.001 100.396 L 468.998 100 Z M 360.001 871 L 511.001 871 L 511.001 924 L 470.006 924 L 360.001 923.997 L 360.001 871 Z M 357.999 153 L 357.999 100.406 L 357.361 100.406 L 355.261 100.406 C 346.153 100.406 337.048 100.406 327.94 100.461 C 319.679 100.512 311.42 100.608 303.161 100.829 C 285.167 101.316 267.014 102.372 249.216 105.564 C 231.164 108.801 214.36 114.084 197.959 122.414 C 182.283 130.375 167.904 140.705 155.36 153 L 357.999 153 Z M 357.999 871 L 155.025 871 C 167.645 883.456 182.137 893.913 197.951 901.957 C 214.362 910.301 231.174 915.595 249.239 918.837 C 267.027 922.029 285.175 923.087 303.161 923.574 C 311.42 923.796 319.679 923.892 327.942 923.942 C 337.176 923.997 346.408 923.997 355.642 923.997 L 357.361 923.997 L 357.999 923.997 L 357.999 871 Z" fill="white" style="pointer-events: none; visibility: hidden;">
    <title>Grid</title>
  </path>
</svg>