<?xml version="1.0" encoding="utf-8"?>
<svg width="608" height="608" viewBox="-304 -304 608 608" xmlns="http://www.w3.org/2000/svg" xmlns:bx="https://boxy-svg.com">
  <defs>
    <bx:guide x="352.035" y="-288.071" angle="90"/>
    <bx:guide x="0.439" y="2267.952" angle="90"/>
    <bx:guide x="1048.115" y="1968.712" angle="0"/>
    <bx:guide x="-288.043" y="1976.431" angle="0"/>
  </defs>
  <title>Squircle: x to 4th plus y to 4th equals radius to 4th, compared with rounded square.</title>
  <g fill="none" stroke-width="3.04" style="" transform="matrix(0.205838, 0, 0, 0.205838, -78.225845, -203.772308)">
    <rect stroke="#ff0000" width="576" height="576" x="-288" y="-288" rx="156.44552" ry="156.44552" style="visibility: hidden; pointer-events: none; stroke-width: 4.85819px;"/>
    <path stroke="#0000ff" stroke-opacity="0.75" d="M 1048.115 1045.035 L 1048 0 C 1048 -126.2 1048 -196.356 1002.178 -242.178 C 956.356 -288 886.2 -288 760 -288 L 365.798 -288.071 L 0 -288 C -126.2 -288 -196.356 -288 -242.178 -242.178 C -288 -196.356 -288 -126.2 -288 0 L -288.043 896.597 L -288 1980 C -288 2106.2 -288 2176.356 -242.178 2222.178 C -196.356 2268 -126.2 2268 0 2268 L 326.762 2267.952 L 760 2268 C 886.2 2268 956.356 2268 1002.178 2222.178 C 1048 2176.356 1048 2106.2 1048 1980 L 1048.115 1045.035 Z" style="stroke-width: 4.85819px;"/>
    <path stroke="#0000ff" stroke-opacity="0.75" d="M 1032.181 1103.803 L 1032.074 50.502 C 1032.074 -68.088 1032.074 -134.016 989.014 -177.075 C 945.954 -220.135 880.028 -220.135 761.436 -220.135 L 343.787 -220.201 L -2.085 -220.135 C -120.677 -220.135 -186.603 -220.135 -229.663 -177.075 C -272.722 -134.016 -272.722 -68.088 -272.722 50.502 L -272.762 964.313 L -272.722 1982.401 C -272.722 2100.993 -272.722 2166.92 -229.663 2209.979 C -186.603 2253.038 -120.677 2253.038 -2.085 2253.038 L 307.104 2252.993 L 761.436 2253.038 C 880.028 2253.038 945.954 2253.038 989.014 2209.979 C 1032.074 2166.92 1032.074 2100.993 1032.074 1982.401 L 1032.181 1103.803 Z" style="stroke-width: 4.85819px;"/>
  </g>
  <g fill="none" stroke-width="3.04" style="" transform="matrix(0.044829, 0, 0, 0.044829, -33.826466, -121.248055)">
    <rect stroke="#ff0000" width="576" height="576" x="-288" y="-288" style="visibility: hidden; pointer-events: none; fill: rgb(186, 218, 85); stroke-width: 22.307px;" rx="156.44552" ry="156.44552"/>
  </g>
  <rect x="-55.574" y="-259.063" width="111.148" height="5.638" style="stroke: rgb(65, 65, 255); fill: none;" rx="2.819" ry="2.819"/>
</svg>