<?xml version="1.0" encoding="utf-8"?>
<svg viewBox="0 0 1024 1024" xmlns="http://www.w3.org/2000/svg" xmlns:bx="https://boxy-svg.com">
  <defs>
    <bx:guide x="352.035" y="-288.071" angle="90"/>
    <bx:guide x="0.439" y="2267.952" angle="90"/>
    <bx:guide x="1048.115" y="1968.712" angle="0"/>
    <bx:guide x="-288.043" y="1976.431" angle="0"/>
    <radialGradient gradientUnits="userSpaceOnUse" cx="654.85" cy="129.842" r="512" id="gradient-0" gradientTransform="matrix(0, 1.600513, -2.236448, 0, 798.412808, -757.810791)">
      <stop offset="0" style="stop-color: rgb(230, 230, 230);"/>
      <stop offset="1" style="stop-color: rgb(171, 171, 171);"/>
    </radialGradient>
  </defs>
  <rect width="1024" height="1024" style="fill: url(#gradient-0); pointer-events: none;"/>
  <path d="M 418.114 69.26 L 605.885 69.26 C 614.007 69.26 620.59 74.797 620.59 81.627 C 620.59 88.456 614.007 93.994 605.885 93.994 L 418.114 93.994 C 409.991 93.994 403.407 88.456 403.407 81.627 C 403.407 74.797 409.991 69.26 418.114 69.26 Z M 766.118 530.587 L 766.079 177.955 C 766.079 156.664 766.078 137.996 763.842 122.761 C 761.433 106.344 754.448 88.186 742.215 75.953 C 730.42 64.157 711.824 56.734 695.405 54.324 C 680.173 52.09 661.505 52.088 640.215 52.088 L 507.201 52.065 L 383.761 52.088 C 362.471 52.088 343.804 52.09 328.57 54.324 C 312.153 56.734 293.527 64.186 281.761 75.953 C 269.994 87.719 262.542 106.344 260.132 122.761 C 257.899 137.996 257.896 156.664 257.896 177.957 L 257.882 480.494 L 257.896 846.069 C 257.896 867.363 257.899 886.029 260.132 901.263 C 262.542 917.681 269.994 936.307 281.761 948.071 C 293.527 959.838 312.153 967.291 328.57 969.7 C 343.804 971.935 362.472 971.936 383.765 971.936 L 494.024 971.92 L 640.209 971.936 C 661.501 971.936 680.173 971.935 695.405 969.7 C 711.824 967.291 730.678 959.608 742.215 948.071 C 754.011 936.276 761.433 917.681 763.842 901.263 C 766.078 886.029 766.079 867.363 766.079 846.07 Z M 708.704 846.069 C 708.704 867.363 708.705 881.821 707.074 892.935 C 705.618 902.865 702.795 906.351 701.643 907.502 C 699.93 909.215 697.007 911.476 687.077 912.932 C 675.964 914.563 661.505 914.56 640.213 914.56 L 494.019 914.545 L 383.762 914.56 C 362.471 914.56 348.013 914.563 336.898 912.932 C 326.969 911.476 323.912 909.084 322.332 907.502 C 320.837 906.007 318.358 902.865 316.902 892.935 C 315.271 881.821 315.272 867.36 315.272 846.068 L 315.258 480.495 L 315.272 177.957 C 315.272 156.665 315.271 142.206 316.902 131.091 C 318.358 121.159 320.62 118.235 322.332 116.523 C 324.612 114.243 326.969 112.549 336.898 111.093 C 348.013 109.462 362.477 109.464 383.769 109.464 L 507.196 109.441 L 640.212 109.464 C 661.505 109.464 675.964 109.462 687.077 111.093 C 697.007 112.549 700.442 115.321 701.645 116.523 C 703.221 118.099 705.618 121.159 707.074 131.091 C 708.705 142.206 708.704 156.668 708.704 177.961 L 708.742 530.584 Z M 456.829 612.134 L 482.248 612.134 L 511.946 485.549 L 541.819 612.134 L 567.242 612.134 L 570.832 589.46 L 561.513 547.935 L 554.075 588.617 L 558.719 612.134 L 587.309 612.134 L 630.687 411.868 L 586.393 411.868 L 561.513 547.935 L 530.977 411.868 L 507.738 411.868 L 499.427 432.501 L 511.946 485.549 L 524.358 432.641 L 516.542 411.868 L 493.162 411.868 L 462.699 548.169 L 437.675 411.868 L 393.313 411.868 L 436.757 612.134 L 465.208 612.134 L 470.278 589.46 L 462.699 548.169 L 453.658 588.617 Z M 429.348 878.752 C 429.348 882.549 432.426 885.626 436.221 885.626 L 587.778 885.626 C 591.575 885.626 594.652 882.549 594.652 878.752 C 594.652 874.955 591.575 871.879 587.778 871.879 L 436.221 871.879 C 432.426 871.879 429.348 874.955 429.348 878.752 Z" style="">
    <title>Icon</title>
  </path>
</svg>