<?xml version="1.0" encoding="utf-8"?>
<svg viewBox="0 0 1024 1024" xmlns="http://www.w3.org/2000/svg" xmlns:bx="https://boxy-svg.com">
  <defs>
    <bx:guide x="352.035" y="-288.071" angle="90"/>
    <bx:guide x="0.439" y="2267.952" angle="90"/>
    <bx:guide x="1048.115" y="1968.712" angle="0"/>
    <bx:guide x="-288.043" y="1976.431" angle="0"/>
    <radialGradient gradientUnits="userSpaceOnUse" cx="654.85" cy="129.842" r="512" id="gradient-0" gradientTransform="matrix(0, 1.600513, -2.236448, 0, 798.412808, -757.810791)">
      <stop offset="0" style="stop-color: rgb(230, 230, 230);"/>
      <stop offset="1" style="stop-color: rgb(171, 171, 171);"/>
    </radialGradient>
  </defs>
  <rect width="1024" height="1024" style="fill: url(#gradient-0); pointer-events: none;"/>
  <path d="M 431.947 134.491 L 592.053 134.491 C 598.978 134.491 604.591 139.212 604.591 145.035 C 604.591 150.858 598.978 155.58 592.053 155.58 L 431.947 155.58 C 425.021 155.58 419.407 150.858 419.407 145.035 C 419.407 139.212 425.021 134.491 431.947 134.491 Z" style="">
    <title>Icon</title>
  </path>
  <path d="M 441.526 824.715 C 441.526 827.953 444.15 830.577 447.386 830.577 L 576.613 830.577 C 579.851 830.577 582.475 827.953 582.475 824.715 C 582.475 821.478 579.851 818.855 576.613 818.855 L 447.386 818.855 C 444.15 818.855 441.526 821.478 441.526 824.715 Z" style=""/>
  <path d="M 679.723 796.848 C 679.723 815.004 679.724 827.332 678.333 836.809 C 677.091 845.276 674.684 848.248 673.702 849.229 C 672.241 850.69 669.749 852.618 661.282 853.859 C 651.807 855.25 639.478 855.248 621.323 855.248 L 496.669 855.235 L 402.656 855.248 C 384.502 855.248 372.174 855.25 362.697 853.859 C 354.231 852.618 351.624 850.578 350.277 849.229 C 349.002 847.955 346.889 845.276 345.647 836.809 C 344.257 827.332 344.257 815.002 344.257 796.847 L 344.245 485.136 L 344.257 227.173 C 344.257 209.018 344.257 196.689 345.647 187.212 C 346.889 178.743 348.817 176.25 350.277 174.79 C 352.221 172.846 354.231 171.402 362.697 170.16 C 372.174 168.769 384.507 168.771 402.662 168.771 L 507.904 168.751 L 621.322 168.771 C 639.478 168.771 651.807 168.769 661.282 170.16 C 669.749 171.402 672.678 173.765 673.704 174.79 C 675.048 176.134 677.091 178.743 678.333 187.212 C 679.724 196.689 679.723 209.02 679.723 227.176 L 679.755 527.845 L 679.723 796.848 Z" style=""/>
  <path d="M 728.678 527.848 L 728.644 227.171 C 728.644 209.017 728.644 193.099 726.737 180.109 C 724.683 166.111 718.727 150.628 708.296 140.197 C 698.239 130.139 682.383 123.81 668.383 121.755 C 655.395 119.85 639.478 119.849 621.325 119.849 L 507.908 119.829 L 402.655 119.849 C 384.502 119.849 368.586 119.85 355.596 121.755 C 341.598 123.81 325.716 130.164 315.684 140.197 C 305.65 150.23 299.296 166.111 297.241 180.109 C 295.337 193.099 295.335 209.017 295.335 227.173 L 295.323 485.135 L 295.335 796.848 C 295.335 815.004 295.337 830.92 297.241 843.91 C 299.296 857.909 305.65 873.79 315.684 883.821 C 325.716 893.855 341.598 900.209 355.596 902.263 C 368.586 904.169 384.503 904.17 402.659 904.17 L 496.673 904.156 L 621.32 904.17 C 639.474 904.17 655.395 904.169 668.383 902.263 C 682.383 900.209 698.459 893.658 708.296 883.821 C 718.354 873.764 724.683 857.909 726.737 843.91 C 728.644 830.92 728.644 815.004 728.644 796.849 L 728.678 527.848 Z" style=""/>
  <path d="M 426.519 667.146 L 465.904 667.146 L 511.917 471.015 L 558.203 667.146 L 597.593 667.146 L 603.155 632.013 L 588.715 567.677 L 577.191 630.709 L 584.387 667.146 L 628.685 667.146 L 695.893 356.854 L 627.266 356.854 L 588.715 567.677 L 541.404 356.854 L 505.397 356.854 L 492.521 388.823 L 511.917 471.015 L 531.149 389.041 L 519.039 356.854 L 482.814 356.854 L 435.615 568.037 L 396.843 356.854 L 328.108 356.854 L 395.421 667.146 L 439.501 667.146 L 447.356 632.013 L 435.615 568.037 L 421.607 630.709 L 426.519 667.146 Z" style="fill: rgb(255, 255, 255);"/>
</svg>