<?xml version="1.0" encoding="utf-8"?>
<svg viewBox="0 0 1024 1024" xmlns="http://www.w3.org/2000/svg" xmlns:bx="https://boxy-svg.com">
  <defs>
    <bx:guide x="352.035" y="-288.071" angle="90"/>
    <bx:guide x="0.439" y="2267.952" angle="90"/>
    <bx:guide x="1048.115" y="1968.712" angle="0"/>
    <bx:guide x="-288.043" y="1976.431" angle="0"/>
    <radialGradient gradientUnits="userSpaceOnUse" cx="654.85" cy="129.842" r="512" id="gradient-0" gradientTransform="matrix(0, 1.600513, -2.236448, 0, 798.412808, -757.810791)">
      <stop offset="0" style="stop-color: rgb(230, 230, 230);"/>
      <stop offset="1" style="stop-color: rgb(171, 171, 171);"/>
    </radialGradient>
  </defs>
  <rect width="1024" height="1024" style="fill: url(#gradient-0);"/>
  <path d="M 454.728 245.427 L 569.271 245.427 C 574.226 245.427 578.242 248.805 578.242 252.971 C 578.242 257.137 574.226 260.515 569.271 260.515 L 454.728 260.515 C 449.773 260.515 445.757 257.137 445.757 252.971 C 445.757 248.805 449.773 245.427 454.728 245.427 Z M 667.016 526.844 L 666.992 311.733 C 666.992 298.745 666.991 287.357 665.628 278.064 C 664.158 268.049 659.897 256.972 652.435 249.51 C 645.239 242.314 633.896 237.786 623.88 236.316 C 614.588 234.953 603.2 234.952 590.213 234.952 L 509.072 234.938 L 433.772 234.952 C 420.785 234.952 409.398 234.953 400.105 236.316 C 390.09 237.786 378.728 242.332 371.551 249.51 C 364.373 256.687 359.827 268.049 358.357 278.064 C 356.994 287.357 356.993 298.745 356.993 311.734 L 356.984 496.286 L 356.993 719.293 C 356.993 732.282 356.994 743.669 358.357 752.962 C 359.827 762.977 364.373 774.339 371.551 781.516 C 378.728 788.694 390.09 793.24 400.105 794.71 C 409.398 796.073 420.786 796.074 433.774 796.074 L 501.034 796.064 L 590.209 796.074 C 603.198 796.074 614.588 796.073 623.88 794.71 C 633.896 793.24 645.397 788.554 652.435 781.516 C 659.63 774.321 664.158 762.977 665.628 752.962 C 666.991 743.669 666.992 732.282 666.992 719.294 Z M 631.992 719.293 C 631.992 732.282 631.993 741.102 630.998 747.882 C 630.11 753.939 628.388 756.065 627.685 756.768 C 626.64 757.813 624.857 759.192 618.8 760.08 C 612.02 761.075 603.2 761.074 590.212 761.074 L 501.031 761.064 L 433.773 761.074 C 420.785 761.074 411.965 761.075 405.185 760.08 C 399.128 759.192 397.264 757.733 396.299 756.768 C 395.387 755.856 393.875 753.939 392.987 747.882 C 391.992 741.102 391.993 732.281 391.993 719.292 L 391.984 496.287 L 391.993 311.734 C 391.993 298.746 391.992 289.925 392.987 283.145 C 393.875 277.087 395.255 275.302 396.299 274.258 C 397.69 272.867 399.128 271.834 405.185 270.946 C 411.965 269.951 420.789 269.952 433.777 269.952 L 509.069 269.938 L 590.211 269.952 C 603.2 269.952 612.02 269.951 618.8 270.946 C 624.857 271.834 626.953 273.525 627.686 274.258 C 628.648 275.22 630.11 277.087 630.998 283.145 C 631.993 289.925 631.992 298.747 631.992 311.736 L 632.016 526.842 Z M 478.345 576.589 L 493.851 576.589 L 511.967 499.37 L 530.19 576.589 L 545.699 576.589 L 547.889 562.758 L 542.204 537.426 L 537.666 562.243 L 540.499 576.589 L 557.94 576.589 L 584.401 454.424 L 557.381 454.424 L 542.204 537.426 L 523.576 454.424 L 509.4 454.424 L 504.331 467.01 L 511.967 499.37 L 519.539 467.096 L 514.771 454.424 L 500.508 454.424 L 481.925 537.569 L 466.66 454.424 L 439.599 454.424 L 466.101 576.589 L 483.456 576.589 L 486.549 562.758 L 481.925 537.569 L 476.41 562.243 Z M 461.581 739.23 C 461.581 741.546 463.458 743.423 465.774 743.423 L 558.226 743.423 C 560.542 743.423 562.419 741.546 562.419 739.23 C 562.419 736.914 560.542 735.037 558.226 735.037 L 465.774 735.037 C 463.458 735.037 461.581 736.914 461.581 739.23 Z" style="pointer-events: none;">
    <title>Icon</title>
  </path>
</svg>