<?xml version="1.0" encoding="utf-8"?>
<svg version="1.1" id="Layer_1" x="0px" y="0px" viewBox="0 0 124 124" style="enable-background:new 0 0 72.93 122.88" xmlns="http://www.w3.org/2000/svg">
  <style type="text/css">.st0{fill-rule:evenodd;clip-rule:evenodd;}</style>
  <g transform="matrix(1, 0, 0, 1, 25.535, 0.564991)"/>
  <g transform="matrix(1, 0, 0, 1, 3.217207, 0.48198)">
    <path class="st0" d="M 36.475 0.565 L 87.515 0.565 C 93.535 0.565 98.465 5.495 98.465 11.505 L 98.465 112.495 C 98.465 118.515 93.535 123.435 87.525 123.435 L 36.485 123.435 C 30.465 123.445 25.535 118.515 25.535 112.505 L 25.535 11.515 C 25.535 5.495 30.465 0.565 36.475 0.565 L 36.475 0.565 Z M 61.995 100.665 C 65.905 100.665 69.085 103.835 69.085 107.755 C 69.085 111.665 65.905 114.845 61.995 114.845 C 58.075 114.845 54.905 111.675 54.905 107.755 C 54.905 103.845 58.085 100.665 61.995 100.665 L 61.995 100.665 Z M 50.705 9.425 L 73.295 9.425 C 73.455 9.425 73.595 9.565 73.595 9.725 L 73.595 13.025 C 73.595 13.185 73.455 13.325 73.295 13.325 L 50.705 13.325 C 50.705 13.325 50.705 13.325 50.705 13.325 C 50.545 13.325 50.405 13.195 50.405 13.025 L 50.405 13.025 L 50.405 9.725 C 50.405 9.725 50.405 9.725 50.405 9.725 C 50.405 9.555 50.535 9.425 50.705 9.425 L 50.705 9.425 L 50.705 9.425 L 50.705 9.425 Z M 35.185 22.095 L 88.815 22.095 C 89.795 22.095 90.595 22.905 90.595 23.875 L 90.595 93.885 C 90.595 94.855 89.785 95.665 88.815 95.665 L 35.185 95.665 C 34.215 95.665 33.405 94.865 33.405 93.885 L 33.405 23.865 C 33.405 22.895 34.205 22.095 35.185 22.095 L 35.185 22.095 Z"/>
    <path d="M 53.72 71.209 L 59.33 46.109 L 62.65 46.109 L 63.76 49.059 L 57.78 74.549 L 54.17 74.549 L 53.72 71.209 Z M 51.45 46.109 L 56.08 71.329 L 55.36 74.549 L 51.32 74.549 L 45.15 46.109 L 51.45 46.109 Z M 67.98 71.209 L 72.57 46.109 L 78.86 46.109 L 72.7 74.549 L 68.64 74.549 L 67.98 71.209 Z M 64.7 46.109 L 70.36 71.329 L 69.85 74.549 L 66.24 74.549 L 60.22 49.039 L 61.4 46.109 L 64.7 46.109 Z" style="white-space: pre;"/>
  </g>
</svg>