<?xml version="1.0" encoding="utf-8"?>
<svg width="608" height="608" viewBox="-304 -304 608 608" xmlns="http://www.w3.org/2000/svg" xmlns:bx="https://boxy-svg.com">
  <defs>
    <bx:guide x="352.035" y="-288.071" angle="90"/>
    <bx:guide x="0.439" y="2267.952" angle="90"/>
    <bx:guide x="1048.115" y="1968.712" angle="0"/>
    <bx:guide x="-288.043" y="1976.431" angle="0"/>
  </defs>
  <title>Squircle: x to 4th plus y to 4th equals radius to 4th, compared with rounded square.</title>
  <path d="M 137.516 11.336 L 137.492 -203.772 C 137.492 -229.749 137.492 -244.19 128.06 -253.622 C 118.629 -263.054 104.188 -263.054 78.211 -263.054 L -2.931 -263.068 L -78.226 -263.054 C -104.203 -263.054 -118.643 -263.054 -128.075 -253.622 C -137.507 -244.19 -137.507 -229.749 -137.507 -203.772 L -137.516 -19.219 L -137.507 203.787 C -137.507 229.764 -137.507 244.204 -128.075 253.636 C -118.643 263.068 -104.203 263.068 -78.226 263.068 L -10.966 263.058 L 78.211 263.068 C 104.188 263.068 118.629 263.068 128.06 253.636 C 137.492 244.204 137.492 229.764 137.492 203.787 L 137.516 11.336 Z" style="stroke-width: 18px;" fill="none">
    <title>Outer</title>
  </path>
  <path d="M -52.755 -265.576 L 52.755 -265.576 C 54.312 -265.576 55.574 -264.314 55.574 -262.757 C 55.574 -261.2 54.312 -259.938 52.755 -259.938 L -52.755 -259.938 C -54.312 -259.938 -55.574 -261.2 -55.574 -262.757 C -55.574 -264.314 -54.312 -265.576 -52.755 -265.576 Z M 146.516 11.337 L 146.492 -203.773 C 146.492 -229.749 146.45 -247.96 134.424 -259.986 C 122.705 -271.705 104.188 -272.054 78.212 -272.054 L -2.929 -272.068 L -78.227 -272.054 C -104.203 -272.054 -122.757 -271.668 -134.439 -259.986 C -146.121 -248.304 -146.507 -229.749 -146.507 -203.772 L -146.516 -19.219 L -146.507 203.787 C -146.507 229.764 -146.121 248.318 -134.439 260 C -122.757 271.682 -104.203 272.068 -78.226 272.068 L -10.966 272.058 L 78.21 272.068 C 104.187 272.068 122.705 271.719 134.424 260 C 145.946 248.478 146.492 229.764 146.492 203.788 Z M 128.492 203.787 C 128.492 229.764 129.088 239.88 121.696 247.272 C 114.454 254.514 104.188 254.068 78.211 254.068 L -10.967 254.058 L -78.227 254.068 C -104.203 254.068 -114.529 254.454 -121.711 247.272 C -128.893 240.09 -128.507 229.764 -128.507 203.787 L -128.516 -19.219 L -128.507 -203.772 C -128.507 -229.749 -128.893 -240.076 -121.711 -247.258 C -114.529 -254.44 -104.201 -254.054 -78.224 -254.054 L -2.931 -254.068 L 78.211 -254.054 C 104.188 -254.054 114.454 -254.5 121.696 -247.258 C 129.244 -239.71 128.492 -229.748 128.492 -203.771 L 128.516 11.336 Z" style="fill: rgb(226, 0, 0);">
    <title>Speaker</title>
  </path>
  <path d="M -52.755 -266.076 L 52.755 -266.076 C 53.636 -266.054 54.529 -265.677 55.102 -265.104 C 55.675 -264.531 56.074 -263.638 56.074 -262.757 C 56.074 -261.876 55.675 -260.983 55.102 -260.41 C 54.529 -259.837 53.636 -259.46 52.755 -259.438 L -52.755 -259.438 C -53.636 -259.46 -54.529 -259.837 -55.102 -260.41 C -55.675 -260.983 -56.074 -261.876 -56.074 -262.757 C -56.074 -263.638 -55.675 -264.531 -55.102 -265.104 C -54.529 -265.677 -53.636 -266.054 -52.755 -266.076 Z M -54.395 -264.397 C -54.842 -263.95 -55.074 -263.433 -55.074 -262.757 C -55.074 -262.081 -54.842 -261.564 -54.395 -261.117 C -53.948 -260.67 -53.431 -260.416 -52.755 -260.438 L 52.755 -260.438 C 53.431 -260.416 53.948 -260.67 54.395 -261.117 C 54.842 -261.564 55.074 -262.081 55.074 -262.757 C 55.074 -263.433 54.842 -263.95 54.395 -264.397 C 53.948 -264.844 53.431 -265.098 52.755 -265.076 L -52.755 -265.076 C -53.431 -265.098 -53.948 -264.844 -54.395 -264.397 Z" style="fill: none;"/>
</svg>