<?xml version="1.0" encoding="utf-8"?>
<svg width="608" height="608" viewBox="-304 -304 608 608" xmlns="http://www.w3.org/2000/svg" xmlns:bx="https://boxy-svg.com">
  <defs>
    <bx:guide x="352.035" y="-288.071" angle="90"/>
    <bx:guide x="0.439" y="2267.952" angle="90"/>
    <bx:guide x="1048.115" y="1968.712" angle="0"/>
    <bx:guide x="-288.043" y="1976.431" angle="0"/>
  </defs>
  <path d="M 137.516 11.336 L 137.492 -203.772 C 137.492 -229.749 137.492 -244.19 128.06 -253.622 C 118.629 -263.054 104.188 -263.054 78.211 -263.054 L -2.931 -263.068 L -78.226 -263.054 C -104.203 -263.054 -118.643 -263.054 -128.075 -253.622 C -137.507 -244.19 -137.507 -229.749 -137.507 -203.772 L -137.516 -19.219 L -137.507 203.787 C -137.507 229.764 -137.507 244.204 -128.075 253.636 C -118.643 263.068 -104.203 263.068 -78.226 263.068 L -10.966 263.058 L 78.211 263.068 C 104.188 263.068 118.629 263.068 128.06 253.636 C 137.492 244.204 137.492 229.764 137.492 203.787 L 137.516 11.336 Z" style="stroke-width: 35px;" fill="none" stroke="#0000ff">
    <title>Outer</title>
  </path>
  <rect x="-66.243" y="-270.079" width="132.485" height="15.088" style="fill: rgb(255, 255, 255);" rx="8.971" ry="8.971">
    <title>Speaker</title>
  </rect>
  <rect x="-50.419" y="219.531" width="100.838" height="8.386" style="fill: rgb(0, 0, 255);" rx="4.193" ry="4.193">
    <title>Speaker</title>
  </rect>
  <path d="M -35.59 46.737 L -11.492 -61.082 L 2.771 -61.082 L 7.539 -48.41 L -18.149 61.083 L -33.655 61.083 L -35.59 46.737 Z M -45.34 -61.082 L -25.451 47.252 L -28.544 61.083 L -45.899 61.083 L -72.401 -61.082 L -45.34 -61.082 Z M 25.666 46.737 L 45.381 -61.082 L 72.401 -61.082 L 45.94 61.083 L 28.499 61.083 L 25.666 46.737 Z M 11.576 -61.082 L 35.889 47.252 L 33.699 61.083 L 18.19 61.083 L -7.669 -48.496 L -2.6 -61.082 L 11.576 -61.082 Z" style="white-space: pre; fill: rgb(0, 0, 255);"/>
</svg>