<?xml version="1.0" encoding="utf-8"?>
<svg viewBox="0 0 1024 1024" xmlns="http://www.w3.org/2000/svg" xmlns:bx="https://boxy-svg.com">
  <defs>
    <bx:guide x="352.035" y="-288.071" angle="90"/>
    <bx:guide x="0.439" y="2267.952" angle="90"/>
    <bx:guide x="1048.115" y="1968.712" angle="0"/>
    <bx:guide x="-288.043" y="1976.431" angle="0"/>
  </defs>
  <path d="M 778.618 531.5 L 778.577 161.522 C 778.577 139.183 778.576 119.597 776.231 103.613 C 773.702 86.388 766.374 67.336 753.54 54.502 C 741.163 42.125 721.653 34.337 704.427 31.81 C 688.446 29.465 668.858 29.463 646.522 29.463 L 506.964 29.439 L 377.452 29.463 C 355.116 29.463 335.531 29.465 319.547 31.81 C 302.322 34.337 282.78 42.156 270.436 54.502 C 258.09 66.846 250.271 86.388 247.744 103.613 C 245.399 119.597 245.398 139.183 245.398 161.523 L 245.382 478.943 L 245.398 862.501 C 245.398 884.841 245.399 904.426 247.744 920.409 C 250.271 937.635 258.09 957.177 270.436 969.52 C 282.78 981.866 302.322 989.685 319.547 992.214 C 335.531 994.557 355.118 994.56 377.456 994.56 L 493.14 994.542 L 646.514 994.56 C 668.856 994.56 688.446 994.557 704.427 992.214 C 721.653 989.685 741.435 981.626 753.54 969.52 C 765.915 957.146 773.702 937.635 776.231 920.409 C 778.576 904.426 778.577 884.841 778.577 862.503 L 778.618 531.5 Z M 718.38 862.501 C 718.38 884.841 718.381 900.011 716.67 911.673 C 715.142 922.091 712.181 925.746 710.971 926.955 C 709.174 928.753 706.107 931.125 695.69 932.652 C 684.028 934.364 668.858 934.361 646.52 934.361 L 493.134 934.345 L 377.455 934.361 C 355.116 934.361 339.946 934.364 328.285 932.652 C 317.867 931.125 314.661 928.615 313.001 926.955 C 311.433 925.387 308.832 922.091 307.305 911.673 C 305.594 900.011 305.595 884.84 305.595 862.499 L 305.58 478.944 L 305.595 161.523 C 305.595 139.185 305.594 124.013 307.305 112.352 C 308.832 101.933 311.206 98.862 313.001 97.067 C 315.393 94.675 317.867 92.898 328.285 91.371 C 339.946 89.66 355.123 89.661 377.461 89.661 L 506.959 89.637 L 646.518 89.661 C 668.858 89.661 684.028 89.66 695.69 91.371 C 706.107 92.898 709.712 95.807 710.973 97.067 C 712.628 98.722 715.142 101.933 716.67 112.352 C 718.381 124.013 718.38 139.187 718.38 161.527 L 718.42 531.496 L 718.38 862.501 Z M 454.115 617.058 L 480.784 617.058 L 511.944 484.247 L 543.286 617.058 L 569.96 617.058 L 573.727 593.271 L 563.949 549.7 L 556.144 592.384 L 561.017 617.058 L 591.014 617.058 L 636.526 406.942 L 590.052 406.942 L 563.949 549.7 L 531.909 406.942 L 507.528 406.942 L 498.809 428.59 L 511.944 484.247 L 524.967 428.737 L 516.766 406.942 L 492.235 406.942 L 460.273 549.947 L 434.018 406.942 L 387.474 406.942 L 433.056 617.058 L 462.905 617.058 L 468.226 593.271 L 460.273 549.947 L 450.787 592.384 L 454.115 617.058 Z M 425.282 896.791 C 425.282 900.774 428.511 904.003 432.494 904.003 L 591.506 904.003 C 595.489 904.003 598.718 900.774 598.718 896.791 C 598.718 892.808 595.489 889.579 591.506 889.579 L 432.494 889.579 C 428.511 889.579 425.282 892.808 425.282 896.791 Z" style=""/>
</svg>