<?xml version="1.0" encoding="utf-8"?>
<svg width="608" height="608" viewBox="-304 -304 608 608" xmlns="http://www.w3.org/2000/svg" xmlns:bx="https://boxy-svg.com">
  <defs>
    <bx:guide x="352.035" y="-288.071" angle="90"/>
    <bx:guide x="0.439" y="2267.952" angle="90"/>
    <bx:guide x="1048.115" y="1968.712" angle="0"/>
    <bx:guide x="-288.043" y="1976.431" angle="0"/>
  </defs>
  <path d="M 137.516 11.336 L 137.492 -203.772 C 137.492 -229.749 137.492 -244.19 128.06 -253.622 C 118.629 -263.054 104.188 -263.054 78.211 -263.054 L -2.931 -263.068 L -78.226 -263.054 C -104.203 -263.054 -118.643 -263.054 -128.075 -253.622 C -137.507 -244.19 -137.507 -229.749 -137.507 -203.772 L -137.516 -19.219 L -137.507 203.787 C -137.507 229.764 -137.507 244.204 -128.075 253.636 C -118.643 263.068 -104.203 263.068 -78.226 263.068 L -10.966 263.058 L 78.211 263.068 C 104.188 263.068 118.629 263.068 128.06 253.636 C 137.492 244.204 137.492 229.764 137.492 203.787 L 137.516 11.336 Z" style="stroke-width: 35px;" fill="none">
    <title>Outer</title>
  </path>
  <path d="M 154.992 203.788 C 154.992 216.776 154.991 228.163 153.628 237.456 C 152.158 247.471 147.63 258.815 140.435 266.01 C 133.299 273.146 121.896 277.734 111.88 279.204 C 102.588 280.567 91.198 280.568 78.209 280.568 L -10.966 280.558 L -78.226 280.568 C -91.214 280.568 -102.602 280.567 -111.895 279.204 C -121.91 277.734 -133.272 273.188 -140.449 266.01 C -147.627 258.833 -152.173 247.471 -153.643 237.456 C -155.006 228.163 -155.007 216.776 -155.007 203.787 L -155.016 -19.22 L -155.007 -203.772 C -155.007 -216.761 -155.006 -228.149 -153.643 -237.442 C -152.173 -247.457 -147.627 -258.819 -140.449 -265.996 C -133.272 -273.174 -121.91 -277.72 -111.895 -279.19 C -102.602 -280.553 -91.215 -280.554 -78.228 -280.554 L -2.928 -280.568 L 78.213 -280.554 C 91.2 -280.554 102.588 -280.553 111.88 -279.19 C 121.896 -277.72 133.303 -273.128 140.435 -265.996 C 147.63 -258.801 152.158 -247.457 153.628 -237.442 C 154.991 -228.149 154.992 -216.761 154.992 -203.773 L 155.016 11.338 L 154.992 203.788 Z M 120.016 11.336 L 119.992 -203.77 C 119.992 -216.759 119.993 -225.581 118.998 -232.361 C 118.11 -238.419 117.227 -239.707 115.686 -241.248 C 114.229 -242.705 112.857 -243.672 106.8 -244.56 C 100.02 -245.555 91.2 -245.554 78.211 -245.554 L -2.931 -245.568 L -78.223 -245.554 C -91.211 -245.554 -100.035 -245.555 -106.815 -244.56 C -112.872 -243.672 -114.517 -242.432 -115.701 -241.248 C -117.055 -239.894 -118.125 -238.419 -119.013 -232.361 C -120.008 -225.581 -120.007 -216.76 -120.007 -203.772 L -120.016 -19.219 L -120.007 203.786 C -120.007 216.775 -120.008 225.596 -119.013 232.376 C -118.125 238.433 -117.075 239.888 -115.701 241.262 C -114.189 242.774 -112.872 243.686 -106.815 244.574 C -100.035 245.569 -91.215 245.568 -78.227 245.568 L -10.969 245.558 L 78.212 245.568 C 91.2 245.568 100.02 245.569 106.8 244.574 C 112.857 243.686 113.881 243.066 115.685 241.262 C 117.257 239.69 118.11 238.433 118.998 232.376 C 119.993 225.596 119.992 216.776 119.992 203.787 L 120.016 11.336 Z" style="fill: rgb(0, 0, 255);"/>
  <rect x="-66.243" y="-270.079" width="132.485" height="15.088" style="fill: rgb(255, 255, 255);" rx="8.971" ry="8.971">
    <title>Speaker</title>
  </rect>
  <rect x="-31.015" y="259.576" width="62.031" height="8.178" style="fill: rgb(255, 255, 255);" rx="4.193" ry="4.193">
    <title>Speaker</title>
  </rect>
</svg>