<?xml version="1.0" encoding="utf-8"?>
<svg viewBox="0 0 1024 1024" xmlns="http://www.w3.org/2000/svg" xmlns:bx="https://boxy-svg.com">
  <defs>
    <bx:guide x="352.035" y="-288.071" angle="90"/>
    <bx:guide x="0.439" y="2267.952" angle="90"/>
    <bx:guide x="1048.115" y="1968.712" angle="0"/>
    <bx:guide x="-288.043" y="1976.431" angle="0"/>
  </defs>
  <path d="M 465.904 667.146 L 395.421 667.146 L 328.108 356.854 L 396.843 356.854 L 435.615 568.037 L 482.814 356.854 L 541.404 356.854 L 588.715 567.677 L 627.266 356.854 L 695.893 356.854 L 628.685 667.146 L 558.203 667.146 L 511.917 471.015 L 465.904 667.146 Z" style="stroke-width: 4px;"/>
  <path d="M 418.706 906.07 L 605.293 906.07 C 610.248 906.07 614.264 909.448 614.264 913.614 C 614.264 917.78 610.248 921.158 605.293 921.158 L 418.706 921.158 C 413.751 921.158 409.735 917.78 409.735 913.614 C 409.735 909.448 413.751 906.07 418.706 906.07 Z" style="stroke-width: 4px;"/>
  <path d="M 454.728 95.265 L 569.271 95.265 C 574.226 95.265 578.242 98.643 578.242 102.809 C 578.242 106.975 574.226 110.353 569.271 110.353 L 454.728 110.353 C 449.773 110.353 445.757 106.975 445.757 102.809 C 445.757 98.643 449.773 95.265 454.728 95.265 Z" style="stroke-width: 4px;"/>
  <path d="M 763.639 531.579 L 763.596 160.13 C 763.596 137.703 763.596 118.038 761.241 101.99 C 758.704 84.698 751.346 65.57 738.459 52.685 C 726.035 40.259 706.447 32.44 689.151 29.901 C 673.107 27.548000000000002 653.443 27.547 631.017 27.547 L 522.982 27.522 L 392.955 27.547 C 370.529 27.547 350.867 27.548000000000002 334.82 29.901 C 317.527 32.44 297.907 40.289 285.514 52.685 C 273.117 65.079 265.268 84.698 262.729 101.99 C 260.377 118.038 260.374 137.703 260.374 160.132 L 260.36 478.812 L 260.374 863.895 C 260.374 886.324 260.377 905.986 262.729 922.033 C 265.268 939.328 273.117 958.946 285.514 971.339 C 297.907 983.734 317.527 991.584 334.82 994.122 C 350.867 996.476 370.531 996.477 392.96 996.477 L 509.103 996.459 L 631.012 996.477 C 653.439 996.477 673.107 996.476 689.151 994.122 C 706.447 991.584 726.307 983.491 738.459 971.339 C 750.885 958.915 758.704 939.328 761.241 922.033 C 763.596 905.986 763.596 886.324 763.596 863.896 L 763.639 531.579 Z" style="stroke: rgb(0, 0, 0); fill: none; stroke-width: 50px;"/>
</svg>